<?xml version="1.0" encoding="UTF-8"?>
<svg width="420px" height="324px" viewBox="0 0 420 324" version="1.1" xmlns="http://www.w3.org/2000/svg" xmlns:xlink="http://www.w3.org/1999/xlink">
    <title>1B2D8974-FF06-43AC-9312-3DB39DBE2D1F@3x</title>
    <defs>
        <path d="M94.91496,0 C64.81776,0 41.9244,6.32757325 25.31088,23.4840382 L25.31088,23.4840382 C-6.4638,56.2981529 21.78036,96.4416497 6.2454,173.137529 L6.2454,173.137529 C1.8858,194.660828 0.02016,211.18093 0,224.183981 L0,224.183981 L0,224.601076 C0.05124,257.597427 12.08172,267.809446 25.31088,280.043599 L25.31088,280.043599 C29.88636,284.274 38.07048,287.880707 48.9552,290.935834 L48.9552,290.935834 C53.56008,292.227076 58.64796,293.421841 64.14996,294.522076 L64.14996,294.522076 C64.95468,294.682873 65.76696,294.84172 66.58932,294.998618 L66.58932,294.998618 C69.70656,295.595025 72.94812,296.162197 76.3014,296.701108 L76.3014,296.701108 C77.39256,296.876522 78.49464,297.049987 79.60764,297.217605 L79.60764,297.217605 C86.20332,298.223312 93.2022,299.127669 100.52028,299.94042 L100.52028,299.94042 C101.60472,300.059312 102.6942,300.177229 103.79208,300.293197 L103.79208,300.293197 C105.33348,300.456917 106.89,300.615764 108.45828,300.769739 L108.45828,300.769739 C146.59512,304.544064 192.16176,305.990255 234.297,306 L234.297,306 L235.1538,306 C244.4862,306 253.64136,305.924962 262.51176,305.792427 L262.51176,305.792427 C287.51604,305.415287 310.21452,304.558682 327.95868,303.436032 L327.95868,303.436032 C344.53608,302.391344 356.78916,301.111796 362.56164,299.781573 L362.56164,299.781573 C400.89,290.948503 419.95128,270.896732 420,240.513076 L420,240.513076 L420,240.266522 C419.96892,221.820764 412.9566,199.584115 399.02016,173.751478 L399.02016,173.751478 C373.66812,126.760013 403.07484,50.0651083 362.82792,18.5997325 L362.82792,18.5997325 C340.07316,0.81177707 316.64136,5.91242675 285.3564,11.0130764 L285.3564,11.0130764 C261.30384,14.9355287 232.6086,18.8579809 196.01064,12.3774076 L196.01064,12.3774076 C155.841,5.26631847 122.38212,0 94.92168,0 L94.92168,0 C94.91832,0 94.91832,0 94.91496,0 L94.91496,0 Z" id="path-1"></path>
        <polygon id="path-3" points="0 273.064017 347.107438 273.064017 347.107438 0 0 0"></polygon>
        <polyline id="path-5" points="0 14.9918792 109.58111 45.4198272 112.908282 29.4881672 2.98132773 0"></polyline>
        <polyline id="path-7" points="0 14.9918792 109.58111 45.4198272 112.908282 29.4881672 2.98132773 0"></polyline>
        <polyline id="path-9" points="0 14.9918792 109.58111 45.4198272 112.908282 29.4881672 2.98132773 0"></polyline>
        <polyline id="path-11" points="0 14.9918792 109.58111 45.4198272 112.908282 29.4881672 2.98132773 0"></polyline>
        <polyline id="path-13" points="0 14.9918792 109.58111 45.4198272 112.908282 29.4881672 2.98132773 0"></polyline>
        <polyline id="path-15" points="0 14.9918792 109.58111 45.4198272 112.908282 29.4881672 2.98132773 0"></polyline>
        <polyline id="path-17" points="0 14.9918792 109.58111 45.4198272 112.908282 29.4881672 2.98132773 0"></polyline>
        <polyline id="path-19" points="0 14.9918792 109.58111 45.4198272 112.908282 29.4881672 2.98132773 0"></polyline>
        <polyline id="path-21" points="0 14.9918792 109.58111 45.4198272 112.908282 29.4881672 2.98132773 0"></polyline>
        <polyline id="path-23" points="0 14.9918792 109.58111 45.4198272 112.908282 29.4881672 2.98132773 0"></polyline>
        <polyline id="path-25" points="0 14.9918792 109.58111 45.4198272 112.908282 29.4881672 2.98132773 0"></polyline>
        <polyline id="path-27" points="0 14.9918792 109.58111 45.4198272 112.908282 29.4881672 2.98132773 0"></polyline>
        <polyline id="path-29" points="0 14.9918792 109.58111 45.4198272 112.908282 29.4881672 2.98132773 0"></polyline>
        <polyline id="path-31" points="0 14.9918792 109.58111 45.4198272 112.908282 29.4881672 2.98132773 0"></polyline>
        <polyline id="path-33" points="0 14.9918792 109.58111 45.4198272 112.908282 29.4881672 2.98132773 0"></polyline>
        <polyline id="path-35" points="0 14.9918792 109.58111 45.4198272 112.908282 29.4881672 2.98132773 0"></polyline>
        <polygon id="path-37" points="0 14.9918792 109.58111 45.4198272 112.908282 29.4881672 2.98132773 0"></polygon>
    </defs>
    <g id="Page-1" stroke="none" stroke-width="1" fill="none" fill-rule="evenodd">
        <g id="MDAA-3741-DT" transform="translate(-480.000000, -516.000000)">
            <g id="Group-254" transform="translate(480.000000, 516.000000)">
                <g id="Group-3" transform="translate(0.000000, 18.000000)">
                    <mask id="mask-2" fill="white">
                        <use xlink:href="#path-1" transform="translate(210.000000, 153.000000) scale(-1, 1) translate(-210.000000, -153.000000) "></use>
                    </mask>
                    <g id="Clip-2" transform="translate(210.000000, 153.000000) scale(-1, 1) translate(-210.000000, -153.000000) "></g>
                    <polygon id="Fill-1" fill="#EBE2D3" mask="url(#mask-2)" transform="translate(210.000000, 155.217691) scale(-1, 1) translate(-210.000000, -155.217691) " points="-0.84 310.717691 420.84 310.717691 420.84 -0.282309172 -0.84 -0.282309172"></polygon>
                    <g id="Group-246" mask="url(#mask-2)">
                        <g transform="translate(27.768595, 37.799719)">
                            <g id="Group-37" stroke-width="1" fill="none">
                                <path d="M253.77265,210.90135 L108.011154,210.90135 C107.335936,210.90135 106.789076,210.353872 106.789076,209.67789 L106.789076,24.338382 C106.789076,23.6628843 107.335936,23.1149213 108.011154,23.1149213 L253.77265,23.1149213 C254.447385,23.1149213 254.994728,23.6628843 254.994728,24.338382 L254.994728,209.67789 C254.994728,210.353872 254.447385,210.90135 253.77265,210.90135" id="Fill-1" fill="#394D6B"></path>
                                <path d="M202.025568,20.5576314 C202.025568,31.9111334 192.590913,41.1149718 180.952352,41.1149718 C169.314276,41.1149718 159.879621,31.9111334 159.879621,20.5576314 C159.879621,9.20412936 169.314276,0.000290953796 180.952352,0.000290953796 C192.590913,0.000290953796 202.025568,9.20412936 202.025568,20.5576314" id="Fill-3" fill="#EFC778"></path>
                                <mask id="mask-4" fill="white">
                                    <use xlink:href="#path-3"></use>
                                </mask>
                                <g id="Clip-6"></g>
                                <polygon id="Fill-5" fill="#FFFFFF" mask="url(#mask-4)" points="116.837531 200.364847 246.43592 200.364847 246.43592 34.3907387 116.837531 34.3907387"></polygon>
                                <polygon id="Fill-7" fill="#6BB6C2" mask="url(#mask-4)" points="145.662684 102.07338 162.746103 102.07338 162.746103 84.9706314 145.662684 84.9706314"></polygon>
                                <polygon id="Fill-8" fill="#F6F5F0" mask="url(#mask-4)" points="152.771564 97.3925643 149.097096 93.7139385 150.289142 92.5200581 152.771564 95.0048035 158.119548 89.6512536 159.312079 90.8446491"></polygon>
                                <polygon id="Fill-9" fill="#6BB6C2" mask="url(#mask-4)" points="173.246383 91.3982857 217.610283 91.3982857 217.610283 88.1686986 173.246383 88.1686986"></polygon>
                                <polygon id="Fill-10" fill="#6BB6C2" mask="url(#mask-4)" points="173.246383 98.9456272 203.376926 98.9456272 203.376926 95.71604 173.246383 95.71604"></polygon>
                                <polygon id="Fill-11" fill="#6BB6C2" mask="url(#mask-4)" points="145.662684 128.159813 162.746103 128.159813 162.746103 111.057064 145.662684 111.057064"></polygon>
                                <polygon id="Fill-12" fill="#F6F5F0" mask="url(#mask-4)" points="152.771564 123.479191 149.097096 119.800565 150.289142 118.606684 152.771564 121.09143 158.119548 115.73788 159.312079 116.931275"></polygon>
                                <polygon id="Fill-13" fill="#6BB6C2" mask="url(#mask-4)" points="173.246383 117.485203 217.610283 117.485203 217.610283 114.255616 173.246383 114.255616"></polygon>
                                <polygon id="Fill-14" fill="#6BB6C2" mask="url(#mask-4)" points="173.246383 125.032544 203.376926 125.032544 203.376926 121.802957 173.246383 121.802957"></polygon>
                                <polygon id="Fill-15" fill="#6BB6C2" mask="url(#mask-4)" points="145.662684 180.333163 162.746103 180.333163 162.746103 163.230414 145.662684 163.230414"></polygon>
                                <polygon id="Fill-16" fill="#F6F5F0" mask="url(#mask-4)" points="152.771564 175.652443 149.097096 171.973818 150.289142 170.779937 152.771564 173.264683 158.119548 167.911133 159.312079 169.104528"></polygon>
                                <polygon id="Fill-17" fill="#6BB6C2" mask="url(#mask-4)" points="173.246383 169.658553 217.610283 169.658553 217.610283 166.428966 173.246383 166.428966"></polygon>
                                <polygon id="Fill-18" fill="#6BB6C2" mask="url(#mask-4)" points="173.246383 177.205894 203.376926 177.205894 203.376926 173.976307 173.246383 173.976307"></polygon>
                                <polygon id="Fill-19" fill="#6BB6C2" mask="url(#mask-4)" points="145.662684 75.9864631 162.746103 75.9864631 162.746103 58.8837141 145.662684 58.8837141"></polygon>
                                <polygon id="Fill-20" fill="#F6F5F0" mask="url(#mask-4)" points="152.771564 71.3059379 149.097096 67.6273121 150.289142 66.4334317 152.771564 68.9181771 158.119548 63.5646273 159.312079 64.7580227"></polygon>
                                <polygon id="Fill-21" fill="#6BB6C2" mask="url(#mask-4)" points="173.246383 65.3118533 217.610283 65.3118533 217.610283 62.0822662 173.246383 62.0822662"></polygon>
                                <polygon id="Fill-22" fill="#6BB6C2" mask="url(#mask-4)" points="173.246383 72.8591948 203.376926 72.8591948 203.376926 69.6296076 173.246383 69.6296076"></polygon>
                                <polygon id="Fill-23" fill="#CC533D" mask="url(#mask-4)" points="145.662684 154.246245 162.746103 154.246245 162.746103 137.143496 145.662684 137.143496"></polygon>
                                <polygon id="Fill-24" fill="#CC533D" mask="url(#mask-4)" points="173.246383 143.571635 217.610283 143.571635 217.610283 140.342048 173.246383 140.342048"></polygon>
                                <polygon id="Fill-25" fill="#CC533D" mask="url(#mask-4)" points="173.246383 151.118977 203.376926 151.118977 203.376926 147.88939 173.246383 147.88939"></polygon>
                                <polygon id="Fill-26" fill="#F6F5F0" mask="url(#mask-4)" points="150.939513 150.457881 149.447153 148.963834 157.469856 140.932054 158.962215 142.426102"></polygon>
                                <polygon id="Fill-27" fill="#F6F5F0" mask="url(#mask-4)" points="158.962021 148.963834 157.469662 150.457881 149.44696 142.426102 150.939319 140.932054"></polygon>
                                <polygon id="Fill-30" fill="#EFC778" mask="url(#mask-4)" points="271.697236 232.611935 309.528856 222.037219 332.700868 273.064211 281.928687 273.064211"></polygon>
                                <path d="M264.581865,136.275145 L228.753135,145.979908 C225.779557,146.785366 222.717339,145.020246 221.920058,142.041364 C221.126652,139.07703 222.87573,136.028319 225.832839,135.219952 L261.678521,125.427902 L264.581865,136.275145 Z" id="Fill-31" fill="#CC533D" mask="url(#mask-4)"></path>
                                <path d="M272.69621,143.235826 L231.035122,154.504952 C228.06106,155.310894 224.998842,153.545774 224.201561,150.566407 C223.408155,147.602073 225.157232,144.553362 228.114826,143.74548 L269.792867,132.388584 L272.69621,143.235826 Z" id="Fill-32" fill="#CC533D" mask="url(#mask-4)"></path>
                                <path d="M274.977955,151.761112 L233.316867,163.030237 C230.342805,163.836179 227.281071,162.07106 226.483306,159.092178 C225.6899,156.127359 227.438977,153.078648 230.396571,152.270766 L272.074612,140.913869 L274.977955,151.761112 Z" id="Fill-33" fill="#CC533D" mask="url(#mask-4)"></path>
                                <path d="M276.879951,125.900508 L281.388997,135.990786 L238.878799,124.587337 C235.991925,123.812915 234.279175,120.842276 235.052722,117.952135 C235.821909,115.077997 238.763034,113.362824 241.640221,114.111545 L272.405295,122.114714 C274.394138,122.629703 276.041013,124.022886 276.879951,125.900508" id="Fill-34" fill="#FF8873" mask="url(#mask-4)"></path>
                                <polygon id="Fill-35" fill="#293E4F" mask="url(#mask-4)" points="210.002352 119.409426 217.609944 118.805697 216.191695 124.10445"></polygon>
                                <polygon id="Fill-36" fill="#EFC778" mask="url(#mask-4)" points="216.191937 124.10445 217.610187 118.805697 230.591919 117.773781 340.518873 147.261948 337.191702 163.193608 227.610591 132.766145"></polygon>
                            </g>
                            <g id="Group-89" stroke-width="1" fill="none" transform="translate(232.113438, 116.903295)">
                                <g id="Group-40">
                                    <mask id="mask-6" fill="white">
                                        <use xlink:href="#path-5"></use>
                                    </mask>
                                    <g id="Clip-39"></g>
                                    <path d="M113.341604,40.9998996 C113.341604,40.9998996 109.902542,41.7665629 106.744901,41.482398 C103.587261,41.1982331 97.4148714,40.6221446 94.5449499,43.4647632" id="Stroke-38" stroke="#FF8873" stroke-width="1.45312481" stroke-linecap="round" stroke-linejoin="round" mask="url(#mask-6)"></path>
                                </g>
                                <g id="Group-43">
                                    <mask id="mask-8" fill="white">
                                        <use xlink:href="#path-7"></use>
                                    </mask>
                                    <g id="Clip-42"></g>
                                    <path d="M114.267438,34.91431 C114.267438,34.91431 110.305735,37.1090715 100.056362,36.5310433 C89.806988,35.9535 86.3320822,41.047616 86.3320822,41.047616" id="Stroke-41" stroke="#FF8873" stroke-width="1.45312481" stroke-linecap="round" stroke-linejoin="round" mask="url(#mask-8)"></path>
                                </g>
                                <g id="Group-46">
                                    <mask id="mask-10" fill="white">
                                        <use xlink:href="#path-9"></use>
                                    </mask>
                                    <g id="Clip-45"></g>
                                    <path d="M107.938595,27.3048984 C107.938595,27.3048984 103.693533,32.9222464 98.3828462,33.327642 C93.0726438,33.7330376 87.7479102,33.6656333 81.5585672,39.9812704" id="Stroke-44" stroke="#FF8873" stroke-width="1.45312481" stroke-linecap="round" stroke-linejoin="round" mask="url(#mask-10)"></path>
                                </g>
                                <g id="Group-49">
                                    <mask id="mask-12" fill="white">
                                        <use xlink:href="#path-11"></use>
                                    </mask>
                                    <g id="Clip-48"></g>
                                    <path d="M98.8217868,24.8592863 C98.8217868,24.8592863 89.6249599,29.6643882 87.1367259,30.1701629 C84.9056949,30.6235659 83.1827733,30.2356275 82.5458202,28.9384585 C81.9088672,27.6417744 82.1118203,26.6481672 83.5136013,25.3228727 C84.7661949,24.1382058 91.6167096,22.22276 91.6167096,22.22276" id="Stroke-47" stroke="#FF8873" stroke-width="1.45312481" stroke-linecap="round" stroke-linejoin="round" mask="url(#mask-12)"></path>
                                </g>
                                <g id="Group-52">
                                    <mask id="mask-14" fill="white">
                                        <use xlink:href="#path-13"></use>
                                    </mask>
                                    <g id="Clip-51"></g>
                                    <path d="M84.0602669,20.8994536 C84.0602669,20.8994536 78.310252,23.5752587 76.7617054,26.3844176 C75.1196743,29.3637844 73.4800652,33.7736741 69.7881594,36.6095038" id="Stroke-50" stroke="#FF8873" stroke-width="1.45312481" stroke-linecap="round" stroke-linejoin="round" mask="url(#mask-14)"></path>
                                </g>
                                <g id="Group-55">
                                    <mask id="mask-16" fill="white">
                                        <use xlink:href="#path-15"></use>
                                    </mask>
                                    <g id="Clip-54"></g>
                                    <path d="M66.0386615,33.4718096 C66.0386615,33.4718096 68.1626456,31.3725779 68.7816768,29.5259912 C69.4007079,27.6798894 70.0594578,23.3524366 74.7884103,18.9910392" id="Stroke-53" stroke="#FF8873" stroke-width="1.45312481" stroke-linecap="round" stroke-linejoin="round" mask="url(#mask-16)"></path>
                                </g>
                                <g id="Group-58">
                                    <mask id="mask-18" fill="white">
                                        <use xlink:href="#path-17"></use>
                                    </mask>
                                    <g id="Clip-57"></g>
                                    <path d="M62.5406026,32.5334351 C62.5406026,32.5334351 67.1145551,27.817559 64.6418211,24.6830168 C62.1686026,21.5484745 57.4987439,21.9538702 52.3391821,25.5898228 C47.1791359,29.2257754 44.3067925,28.5177878 44.3067925,28.5177878" id="Stroke-56" stroke="#FF8873" stroke-width="1.45312481" stroke-linecap="round" stroke-linejoin="round" mask="url(#mask-18)"></path>
                                </g>
                                <g id="Group-61">
                                    <mask id="mask-20" fill="white">
                                        <use xlink:href="#path-19"></use>
                                    </mask>
                                    <g id="Clip-60"></g>
                                    <path d="M67.8505628,17.1298077 C67.8505628,17.1298077 60.5389232,15.7312898 53.9131584,19.7091131 C47.2869093,23.6874214 42.1709412,27.1521962 39.6429885,27.266638" id="Stroke-59" stroke="#FF8873" stroke-width="1.45312481" stroke-linecap="round" stroke-linejoin="round" mask="url(#mask-20)"></path>
                                </g>
                                <g id="Group-64">
                                    <mask id="mask-22" fill="white">
                                        <use xlink:href="#path-21"></use>
                                    </mask>
                                    <g id="Clip-63"></g>
                                    <path d="M57.7103673,14.1594604 C57.7103673,14.1594604 49.669259,15.9531906 46.3842282,18.6546966 C43.5361036,20.9973596 38.0781668,25.4082191 36.3634795,25.5115077" id="Stroke-62" stroke="#FF8873" stroke-width="1.45312481" stroke-linecap="round" stroke-linejoin="round" mask="url(#mask-22)"></path>
                                </g>
                                <g id="Group-67">
                                    <mask id="mask-24" fill="white">
                                        <use xlink:href="#path-23"></use>
                                    </mask>
                                    <g id="Clip-66"></g>
                                    <path d="M3.07345584,16.5812144 C3.07345584,16.5812144 3.61498702,12.2222416 1.16162797,9.24966363" id="Stroke-65" stroke="#FF8873" stroke-width="1.45312481" stroke-linecap="round" stroke-linejoin="round" mask="url(#mask-24)"></path>
                                </g>
                                <g id="Group-70">
                                    <mask id="mask-26" fill="white">
                                        <use xlink:href="#path-25"></use>
                                    </mask>
                                    <g id="Clip-69"></g>
                                    <path d="M6.46945695,18.3680101 C6.46945695,18.3680101 10.9383001,13.8116737 9.4890503,9.88816173 C8.28683171,6.63481337 4.42830097,2.18079568 -0.13063592,0.77063962" id="Stroke-68" stroke="#FF8873" stroke-width="1.45312481" stroke-linecap="round" stroke-linejoin="round" mask="url(#mask-26)"></path>
                                </g>
                                <g id="Group-73">
                                    <mask id="mask-28" fill="white">
                                        <use xlink:href="#path-27"></use>
                                    </mask>
                                    <g id="Clip-72"></g>
                                    <path d="M10.3214971,19.1511123 C10.3214971,19.1511123 15.2039964,15.3832606 14.6585902,12.0518396 C14.1131841,8.72041867 13.0683873,4.6863443 14.1717934,1.72928388" id="Stroke-71" stroke="#FF8873" stroke-width="1.45312481" stroke-linecap="round" stroke-linejoin="round" mask="url(#mask-28)"></path>
                                </g>
                                <g id="Group-76">
                                    <mask id="mask-30" fill="white">
                                        <use xlink:href="#path-29"></use>
                                    </mask>
                                    <g id="Clip-75"></g>
                                    <path d="M16.1515791,20.7150374 C16.1515791,20.7150374 22.5477501,15.7280893 25.2210154,12.9776061 C27.8942806,10.2276078 31.8128739,7.49409692 34.4720923,7.59738551" id="Stroke-74" stroke="#FF8873" stroke-width="1.45312481" stroke-linecap="round" stroke-linejoin="round" mask="url(#mask-30)"></path>
                                </g>
                                <g id="Group-79">
                                    <mask id="mask-32" fill="white">
                                        <use xlink:href="#path-31"></use>
                                    </mask>
                                    <g id="Clip-78"></g>
                                    <path d="M27.0565542,5.18581498 C27.0565542,5.18581498 23.9274921,11.0402903 20.111102,9.89102278 C16.2942275,8.74224021 21.5908674,4.59517877 20.064602,3.05991258" id="Stroke-77" stroke="#FF8873" stroke-width="1.45312481" stroke-linecap="round" stroke-linejoin="round" mask="url(#mask-32)"></path>
                                </g>
                                <g id="Group-82">
                                    <mask id="mask-34" fill="white">
                                        <use xlink:href="#path-33"></use>
                                    </mask>
                                    <g id="Clip-81"></g>
                                    <path d="M56.6156315,32.2577564 C56.6156315,32.2577564 60.649506,27.4594434 59.0055374,26.8309832 C57.3615689,26.202038 54.082835,30.5149431 52.006804,30.333097" id="Stroke-80" stroke="#FF8873" stroke-width="1.45312481" stroke-linecap="round" stroke-linejoin="round" mask="url(#mask-34)"></path>
                                </g>
                                <g id="Group-85">
                                    <mask id="mask-36" fill="white">
                                        <use xlink:href="#path-35"></use>
                                    </mask>
                                    <g id="Clip-84"></g>
                                    <path d="M42.394335,10.8954438 C42.394335,10.8954438 34.6516016,12.9752785 30.9979615,14.9527945 C27.3443213,16.9298255 23.1288063,21.2417607 20.3136192,21.4876167" id="Stroke-83" stroke="#FF8873" stroke-width="1.45312481" stroke-linecap="round" stroke-linejoin="round" mask="url(#mask-36)"></path>
                                </g>
                                <g id="Group-88">
                                    <mask id="mask-38" fill="white">
                                        <use xlink:href="#path-37"></use>
                                    </mask>
                                    <g id="Clip-87"></g>
                                    <path d="M41.3154382,18.4491862 C39.2582979,19.7516894 37.3324231,20.2564942 36.2692202,20.7268695 C35.2060172,21.1972448 32.766705,22.6074009 31.3256896,21.2195513 C29.8851585,19.8321866 30.7575178,18.4399727 32.8156269,17.5220135 C34.8732516,16.6035693 36.4445639,16.8033576 37.8022668,15.9334057 C39.1594854,15.0634539 40.8756258,14.0223242 42.2822506,14.8374798 C43.688391,15.6531202 43.1177974,17.3081624 41.3154382,18.4491862 Z" id="Stroke-86" stroke="#FF8873" stroke-width="1.45312481" stroke-linecap="round" stroke-linejoin="round" mask="url(#mask-38)"></path>
                                </g>
                            </g>
                            <path d="M301.98956,153.197405 L269.018642,144.3849 L268.905783,152.819165 C268.89222,159.36902 262.564831,164.045133 256.308644,162.129687 C252.249582,160.886829 249.460551,157.156802 249.413567,152.907421 L249.259535,139.06093 C249.226114,136.045194 247.187379,133.422246 244.275317,132.649278 C239.989084,131.510679 235.799725,134.777605 235.852978,139.217075 L236.17124,165.513964 C236.227912,170.166316 237.920318,174.649429 240.951052,178.176274 L263.94869,204.933355 C264.140018,205.155934 264.324565,205.383848 264.501362,205.617096 C266.646658,208.446137 270.363751,209.581826 273.78247,208.632832 L297.097373,202.16202 C300.597466,201.190719 303.014497,198.161405 303.533747,194.562791 C303.536653,194.543394 303.539559,194.523998 303.542466,194.504601 L309.756996,161.696166 C309.899402,156.834328 306.683637,154.451901 301.98956,153.197405" id="Fill-90" fill="#FF8873"></path>
                            <polygon id="Fill-92" fill="#FF8873" points="309.528952 222.03751 300.226532 196.340956 266.487396 205.391558 274.139067 231.929454"></polygon>
                        </g>
                    </g>
                </g>
                <polygon id="Fill-94" fill="#EFC778" points="176.703231 97.9235246 240.616988 97.9235246 240.616988 73.2244569 176.703231 73.2244569"></polygon>
                <g id="Group-252" transform="translate(85.734110, 142.320141)" fill="#6CB5C1">
                    <path d="M9.81156791,7.85330295 L10.316771,6.76901513 C10.8563646,5.61150395 12.2344113,5.11154834 13.3896456,5.65417717 L22.4658631,9.92101459 C23.6206129,10.4636434 24.1214566,11.8471287 23.5823473,13.0046399 L22.8586912,14.5578482 C22.7526131,14.7843073 22.483785,14.8822617 22.2570975,14.7755787 C22.0308944,14.6693805 21.9330507,14.3992784 22.0386444,14.1723345 L22.7623006,12.619611 C23.0907068,11.9150179 22.7860349,11.0731916 22.0832069,10.7424741 L13.006505,6.47563672 C12.3036769,6.14540416 11.4647396,6.44945088 11.1363334,7.15404399 L10.6311303,8.2383318 C10.3027241,8.94292491 10.6078803,9.78475123 11.3107083,10.1154687 L17.3358482,12.9479039 C17.5620512,13.054102 17.659895,13.3242042 17.5543012,13.5511481 C17.4487075,13.7780921 17.179395,13.8755616 16.953192,13.7693635 L10.9275678,10.9369283 C9.77281791,10.3938145 9.27197423,9.01081413 9.81156791,7.85330295" id="Fill-96"></path>
                    <path d="M0.317916049,3.96155347 L1.22369718,2.01798211 C2.06457207,0.213098731 4.31836864,-0.517195297 6.24714963,0.3896107 L19.8934447,6.80417205 C20.1196478,6.91085511 20.2174915,7.18095722 20.1118978,7.40790118 C20.0058197,7.63484514 19.7369916,7.73231466 19.5103041,7.62611652 L5.86449343,1.21107025 C4.38714988,0.516660524 2.67343136,1.05153059 2.04325957,2.40349589 L1.13747844,4.34706724 C0.507791024,5.69854763 1.19705656,7.36328826 2.67440011,8.05769799 L18.2175074,15.3645176 C19.694851,16.0589274 21.4090539,15.5240573 22.0387413,14.172092 C22.144335,13.945633 22.4136475,13.8476785 22.6398506,13.9543616 C22.866538,14.0605597 22.9643818,14.3306618 22.8583037,14.5576058 C22.0174288,16.3624892 19.7641166,17.0927832 17.8348512,16.1859772 L2.29125954,8.87915754 C0.361994168,7.97235154 -0.522958839,5.76643685 0.317916049,3.96155347" id="Fill-97"></path>
                </g>
                <g id="Group-249" transform="translate(99.660251, 168.926456)" fill="#F17967">
                    <path d="M7.1748506,10.1310858 L8.31991295,10.4724716 C9.54199091,10.8366488 10.2428814,12.1299384 9.88153774,13.3553388 L7.04310062,22.9873642 C6.68175692,24.2132495 5.39331959,24.9139633 4.17124163,24.5493012 L2.5311481,24.0609837 C2.29186688,23.9897 2.15478877,23.7370552 2.22550751,23.4970183 C2.29671063,23.2564965 2.54810122,23.1197482 2.78786681,23.1910319 L4.42747597,23.6798342 C5.17147587,23.9014441 5.95567889,23.4747118 6.17510074,22.7289003 L9.01402223,13.0968748 C9.23392845,12.3510633 8.80767851,11.5640333 8.06367861,11.3419385 L6.91861626,11.0010377 C6.17461636,10.7794279 5.39041334,11.2056752 5.17050712,11.9514867 L3.28628862,18.3456813 C3.21556988,18.5862031 2.96369492,18.7229514 2.7244137,18.6516677 C2.4846481,18.580384 2.34805437,18.3272542 2.41877311,18.0872174 L4.30299161,11.6930228 C4.66433531,10.4676224 5.95277264,9.76690865 7.1748506,10.1310858" id="Fill-98"></path>
                    <path d="M9.58088622,0.140605338 L11.6336672,0.752093232 C13.5391982,1.31993806 14.5990105,3.44778015 13.9954794,5.4946401 L9.72765182,19.9758954 C9.65693308,20.2164172 9.40554249,20.3531655 9.1657769,20.2818818 C8.92649568,20.2101132 8.78941758,19.9574684 8.86013632,19.7174315 L13.1279639,5.23617615 C13.5900576,3.66890503 12.8044014,2.04732255 11.3769485,1.62204508 L9.32465188,1.01055719 C7.89719894,0.584794799 6.36027727,1.51439218 5.89818359,3.08214821 L1.03699674,19.5768038 C0.574903047,21.1445599 1.36055919,22.7661423 2.78752775,23.1909349 C3.02729334,23.2622186 3.16388708,23.5153484 3.09316834,23.7553852 C3.0224496,23.9954221 2.771059,24.1321704 2.53129341,24.0608867 C0.625762415,23.4930419 -0.434049943,21.3656847 0.169481226,19.3183399 L5.03066808,2.82319933 C5.63371487,0.776339381 7.67535522,-0.427239487 9.58088622,0.140605338" id="Fill-99"></path>
                </g>
                <g id="Group-248" transform="translate(54.873775, 199.997189)">
                    <path d="M30.4265673,24.1448644 C30.7942079,24.6719757 30.7971142,25.3062549 30.4328642,25.5608395 L18.0299596,34.2332023 C17.6652253,34.4882718 17.071866,34.2671469 16.703741,33.7400356 L0.277618234,10.1941148 C-0.090022342,9.66700348 -0.0929285916,9.03320913 0.27132136,8.77813964 L12.6747103,0.105776832 C13.0389603,-0.148807739 13.6323196,0.0718322223 14.0004445,0.599428439 L30.4265673,24.1448644 Z" id="Fill-100" fill="#6BB6C2"></path>
                    <path d="M14.1362633,9.74468815 L26.9431365,28.1024179 L30.5187923,25.6021549 C30.8835266,25.3475704 30.8777141,24.6909846 30.5095892,24.1638733 L18.3803564,6.77695943 L14.1362633,9.74468815 Z" id="Fill-101" fill="#EBC377"></path>
                    <path d="M4.61059422,16.4051539 L16.739827,33.7915829 C17.1079519,34.3186942 17.7521706,34.5291508 18.1164205,34.2740813 L21.6615607,31.795155 L8.8546874,13.4374252 L4.61059422,16.4051539 Z" id="Fill-102" fill="#EBC377"></path>
                    <polygon id="Fill-103" fill="#F48674" points="8.85473584 13.4376192 21.6616091 31.7953489 26.9432334 28.1021754 14.1363601 9.74444568"></polygon>
                </g>
                <g id="Group-240" transform="translate(5.553719, 0.000000)">
                    <path d="M41.0577437,102.30233 C25.9521349,87.1844055 25.9521349,62.6733777 41.0577437,47.5554531 C56.1633524,32.4375284 80.654412,32.4375284 95.7600208,47.5554531 C110.86563,62.6733777 110.86563,87.1844055 95.7600208,102.30233 C80.654412,117.420255 56.1633524,117.420255 41.0577437,102.30233" id="Fill-43" fill="#FFFFFF"></path>
                    <path d="M25.0813384,87.3210596 C9.81961671,71.6159258 9.81961671,46.3330414 25.0813384,30.6279077 C40.9155987,14.3336959 66.9524754,14.1961447 82.9589081,30.2156278 C98.8290221,46.0986811 98.8290221,71.8502862 82.9589081,87.7333395 C66.9524754,103.752823 40.9155987,103.615271 25.0813384,87.3210596" id="Fill-45" fill="#526577"></path>
                    <path d="M80.1555976,83.0026618 C66.7347389,97.4354469 44.1584905,98.0514371 29.9723796,84.4652647 C15.9072749,70.9942168 15.4165275,48.6627029 28.8762276,34.5861306 C42.4517054,20.3884535 65.0331824,20.0109352 79.0751316,33.8389435 C92.6091535,47.1668335 93.0909375,69.092048 80.1555976,83.0026618" id="Fill-47" fill="#394D6B"></path>
                    <path d="M37.4089582,42.7580556 C25.3206618,55.4004322 24.4687631,74.6815237 34.5641918,88.2669485 C32.9406918,87.166165 31.3829236,85.9237187 29.9188978,84.5212944 C15.8224211,71.0207178 15.3309268,48.639865 28.8201315,34.5322689 C42.3097098,20.4246728 64.6723299,19.9324039 78.7684331,33.4329805 C80.2328324,34.8354048 81.5414922,36.3380023 82.7115923,37.9127394 C68.7066173,28.4164729 49.4972547,30.1160527 37.4089582,42.7580556" id="Fill-49" fill="#293E4F"></path>
                    <path d="M54.5834744,59.6149938 C54.5834744,59.6149938 68.3154385,64.7350386 84.7644403,48.2726256 C101.213069,31.8105864 114.149902,0 114.149902,0 C114.149902,0 82.3652307,12.9473815 65.9166024,29.4094207 C49.4676007,45.8714599 54.5834744,59.6149938 54.5834744,59.6149938" id="Fill-51" fill="#ABD5DC"></path>
                    <path d="M114.149716,0.000149512186 C114.149716,0.000149512186 101.213255,31.8103622 84.7642536,48.2727752 C68.3156253,64.7348144 54.5832877,59.6151434 54.5832877,59.6151434 L114.149716,0.000149512186 Z" id="Fill-53" fill="#6BB6C2"></path>
                    <path d="M54.5993845,59.6311785 C54.5993845,59.6311785 64.767641,69.1577212 78.1466704,61.4268199 C91.5260732,53.6959185 103.050047,31.6353955 103.050047,31.6353955 C103.050047,31.6353955 78.1985835,30.5932956 64.8191807,38.3241969 C51.4397778,46.0550983 54.5993845,59.6311785 54.5993845,59.6311785" id="Fill-55" fill="#6BB6C2"></path>
                    <path d="M54.5993845,59.6311785 C54.5993845,59.6311785 64.767641,69.1577212 78.1466704,61.4268199 C91.5260732,53.6959185 103.050047,31.6353955 103.050047,31.6353955 L54.5993845,59.6311785 Z" id="Fill-57" fill="#ABD5DC"></path>
                    <path d="M54.5832877,59.6150686 C54.5832877,59.6150686 39.5826257,51.7798825 25.8921174,65.481553 C14.2422817,77.1412608 7.29450839,100.638222 5.48202955,107.384586 C5.25831745,108.21849 6.01946146,108.980255 6.85268633,108.75636 C13.593554,106.942403 37.0713733,99.9889655 48.7215824,88.3296314 C62.4120908,74.627961 54.5832877,59.6150686 54.5832877,59.6150686" id="Fill-59" fill="#ABD5DC"></path>
                    <path d="M54.5832877,59.6150686 C54.5832877,59.6150686 39.5826257,51.7798825 25.8921174,65.481553 C14.1093243,77.2739529 7.13690154,101.174971 5.4222734,107.60848 C5.30164066,108.060755 5.85662594,108.381458 6.18752564,108.050289 L54.5832877,59.6150686 Z" id="Fill-61" fill="#6BB6C2"></path>
                    <path d="M54.5652114,59.6500171 C54.5652114,59.6500171 52.8946534,50.0905817 37.8271393,46.0496411 C22.7592516,42.0090743 0,45.0172595 0,45.0172595 C0,45.0172595 18.2069531,59.0116 33.2748408,63.0521669 C48.3427284,67.0931075 54.5652114,59.6500171 54.5652114,59.6500171" id="Fill-63" fill="#ABD5DC"></path>
                    <path d="M0,45.0173716 C0,45.0173716 22.7592516,42.0091864 37.8271393,46.0497532 C52.8946534,50.09032 54.5652114,59.6501292 54.5652114,59.6501292 L0,45.0173716 Z" id="Fill-65" fill="#6BB6C2"></path>
                    <g id="Group-220" transform="translate(36.460964, 45.870825)">
                        <path d="M1.53461273,50.4042956 C3.84456155,51.28567 22.9366527,58.21855 39.7180481,47.340791 C49.5707174,40.9543779 53.6031373,31.6846224 54.7463473,28.9578939 C60.0624041,16.2777654 57.4603971,4.88493689 56.4759144,1.26375175 C56.7758156,0.842501167 57.0753434,0.421250584 57.3752446,0 C59.3662449,1.65397856 62.0526575,4.22371925 64.5198397,7.88265622 C65.8774248,9.89509024 71.2943202,18.3563586 71.0340074,30.1024097 C70.6336412,48.1414287 57.1754349,58.9235 55.621028,60.1270731 C53.6520627,61.6517236 44.2483115,68.6313262 30.6664847,68.3909854 C27.5640198,68.3360396 19.4480137,68.0859805 11.1348123,62.7308278 C5.16106431,58.8827579 1.72060375,54.0964991 0,51.2800633 C0.511288591,50.9881407 1.02295066,50.6962182 1.53461273,50.4042956" id="Fill-214" fill="#FF8873"></path>
                        <path d="M18.0429598,13.6169718 C18.0429598,13.6169718 12.4699515,21.5586854 20.2696235,35.0790723 C28.0692955,48.5994593 46.2878263,62.5788487 46.2878263,62.5788487 C46.2878263,62.5788487 43.3007656,39.7984245 35.5010936,26.2780375 C27.7017951,12.7576505 18.0429598,13.6169718 18.0429598,13.6169718" id="Fill-216" fill="#6BB6C2"></path>
                        <path d="M46.2879384,62.5786618 C46.2879384,62.5786618 28.0694075,48.5996462 20.2697355,35.0792592 C12.4700636,21.5588723 18.0430719,13.6167849 18.0430719,13.6167849 L46.2879384,62.5786618 Z" id="Fill-218" fill="#ABD5DC"></path>
                    </g>
                </g>
            </g>
        </g>
    </g>
</svg>